<svg version="1.1" id="Layer_1" xmlns="http://www.w3.org/2000/svg" xmlns:xlink="http://www.w3.org/1999/xlink" x="0px" y="0px" width="100%" viewBox="0 0 500 500" enable-background="new 0 0 500 500" xml:space="preserve">

<path fill="#FBFBFB" opacity="1.000000" stroke="none" d="
M253.148926,392.853149 
	C237.686234,375.520142 232.585358,354.691864 231.299377,332.695038 
	C230.366669,316.741058 230.085602,300.733490 230.015976,284.747620 
	C229.842484,244.924942 229.996094,205.100922 229.905426,165.277695 
	C229.893341,159.963364 229.561554,154.601578 228.793320,149.347214 
	C227.209579,138.515060 222.615616,133.899353 211.869186,132.017944 
	C206.807404,131.131744 201.668747,130.684677 196.352875,130.011780 
	C196.352875,127.492584 196.352875,125.058037 196.352875,122.569092 
	C231.640869,122.569092 266.872253,122.569092 302.456055,122.569092 
	C302.456055,124.815262 302.456055,127.356499 302.456055,130.050537 
	C297.308838,130.690125 292.173889,131.134262 287.110321,131.997223 
	C276.095337,133.874435 271.461945,138.643326 270.015472,149.656815 
	C269.388336,154.431976 268.980042,159.274277 268.974182,164.086716 
	C268.914276,213.240860 268.832520,262.395630 269.035858,311.549072 
	C269.113739,330.377411 270.212158,349.136322 275.446747,367.445740 
	C282.449097,391.938324 298.349792,405.847534 323.694458,408.512848 
	C338.052216,410.022766 352.348694,409.349976 366.171356,404.677521 
	C387.696045,397.401581 400.142456,381.489014 406.943909,360.643433 
	C413.201843,341.463623 415.161377,321.604401 415.166229,301.515045 
	C415.176758,257.859222 415.212402,214.203369 415.133270,170.547714 
	C415.124237,165.570923 414.729248,160.555313 414.027466,155.626877 
	C412.102539,142.108521 405.277374,134.885834 391.861511,132.102707 
	C387.156982,131.126755 382.340851,130.688751 377.358459,129.973923 
	C377.358459,127.507652 377.358459,125.078354 377.358459,122.583237 
	C404.278412,122.583237 431.179230,122.583237 458.445496,122.583237 
	C458.445496,124.646683 458.445496,127.056503 458.445496,129.884384 
	C454.155701,130.531647 449.590668,131.041000 445.101654,131.932785 
	C433.584229,134.220856 427.675659,140.329910 426.161224,152.037415 
	C425.330658,158.458130 424.948669,164.978958 424.932007,171.456100 
	C424.821198,214.611771 425.020721,257.768677 424.786102,300.923370 
	C424.678284,320.756104 423.479004,340.548889 418.177399,359.834595 
	C407.856018,397.380920 380.260651,420.018005 341.344147,423.233673 
	C325.052063,424.579865 309.086945,422.955536 293.321686,419.010071 
	C277.092377,414.948547 263.966339,405.959839 253.148926,392.853149 
z" data-index="1" style="opacity: 1;"></path>
<path fill="#FDFDFD" opacity="1.000000" stroke="none" d="
M148.849411,132.572021 
	C140.438812,134.418457 136.044540,139.679169 135.011490,147.496841 
	C134.098160,154.408524 133.513641,161.418381 133.502426,168.386047 
	C133.392578,236.699356 133.387726,305.013000 133.503632,373.326294 
	C133.514877,379.956360 134.154541,386.645355 135.192169,393.197784 
	C136.364029,400.597992 140.792130,405.565979 148.418228,406.984985 
	C154.450729,408.107422 160.535843,408.947266 166.961060,409.970490 
	C166.961060,412.311554 166.961060,414.856171 166.961060,417.327118 
	C131.685516,417.327118 96.471802,417.327118 60.991585,417.327118 
	C60.991585,415.117645 60.991585,412.690979 60.991585,409.989044 
	C66.962646,409.039276 72.981873,408.150177 78.975266,407.111908 
	C87.294632,405.670746 91.771507,400.308380 92.960785,392.294678 
	C93.862450,386.219055 94.530540,380.043274 94.540771,373.910797 
	C94.655334,305.264252 94.662033,236.617416 94.564301,167.970856 
	C94.554855,161.333908 93.902214,154.667801 93.101784,148.069382 
	C92.003845,139.018433 86.576317,133.731796 77.667641,132.208115 
	C72.266205,131.284286 66.796600,130.759033 61.042152,130.013855 
	C61.042152,127.514297 61.042152,124.970413 61.042152,122.570236 
	C96.462212,122.570236 131.690536,122.570236 167.089630,122.570236 
	C167.089630,124.927879 167.089630,127.364883 167.089630,129.899368 
	C161.018433,130.756073 155.123764,131.587860 148.849411,132.572021 
z" data-index="2"></path>
</svg>